<svg width="32" height="32" viewBox="0 0 32 32" fill="none" xmlns="http://www.w3.org/2000/svg">
  <defs>
    <linearGradient id="faviconGrad" x1="0%" y1="0%" x2="100%" y2="100%">
      <stop offset="0%" style="stop-color:#3B82F6"/>
      <stop offset="100%" style="stop-color:#2563EB"/>
    </linearGradient>
  </defs>
  <rect width="32" height="32" rx="8" fill="url(#faviconGrad)"/>
  <!-- Hourglass -->
  <g transform="translate(7, 5)">
    <path d="M2 2 L2 4 C2 6 5 9 9 11 C5 13 2 16 2 18 L2 20 L16 20 L16 18 C16 16 13 13 9 11 C13 9 16 6 16 4 L16 2 Z" 
          fill="none" stroke="white" stroke-width="1.5" stroke-linecap="round" stroke-linejoin="round"/>
    <path d="M4 4 L14 4" stroke="white" stroke-width="1" stroke-linecap="round"/>
    <path d="M4 18 L14 18" stroke="white" stroke-width="1" stroke-linecap="round"/>
    <!-- Sand in bottom -->
    <path d="M6 18 C6 16 7.5 14 9 13 C10.5 14 12 16 12 18 Z" fill="white" opacity="0.7"/>
    <!-- Sand falling -->
    <circle cx="9" cy="11" r="0.75" fill="white" opacity="0.8"/>
  </g>
</svg>
